<svg width="21" height="21" viewBox="0 0 21 21" fill="none" xmlns="http://www.w3.org/2000/svg">
<g id="clock-fill">
<path id="clock-fill_2" fill-rule="evenodd" clip-rule="evenodd" d="M20.9876 10.4086C20.9876 15.9338 16.5108 20.4129 10.9884 20.4129C5.46604 20.4129 0.989258 15.9338 0.989258 10.4086C0.989258 4.88337 5.46604 0.404297 10.9884 0.404297C16.5108 0.404297 20.9876 4.88337 20.9876 10.4086ZM10.9884 4.78117C10.9884 4.43584 10.7086 4.1559 10.3635 4.1559C10.0183 4.1559 9.73854 4.43584 9.73854 4.78117V11.6591C9.73854 11.8835 9.8587 12.0907 10.0534 12.202L14.4281 14.7031C14.7277 14.8744 15.1095 14.7702 15.2807 14.4704C15.452 14.1706 15.3479 13.7886 15.0482 13.6173L10.9884 11.2963V4.78117Z" fill="#383838"/>
</g>
</svg>
